<svg width="23" height="22" viewBox="0 0 23 22" fill="none" xmlns="http://www.w3.org/2000/svg">
<path d="M0.696401 8.58542L9.54678 12.4546L13.4159 21.3049C13.6013 21.7336 14.0183 22 14.4817 22H14.5396C14.7739 21.988 14.999 21.9052 15.1852 21.7624C15.3713 21.6197 15.5098 21.4238 15.5822 21.2007L21.9535 1.50743C22.0926 1.09039 21.9767 0.638606 21.6755 0.337415C21.5261 0.186162 21.3372 0.0799082 21.1303 0.0307549C20.9235 -0.0183984 20.707 -0.00847589 20.5055 0.0593925L0.800659 6.41916C0.337289 6.56975 0.0245132 6.98679 0.00134466 7.46174C-0.0218239 7.94828 0.256198 8.38848 0.696401 8.58542ZM19.0575 2.95546L14.3195 17.5864L11.4929 11.1108C11.3771 10.8443 11.1686 10.6358 10.8906 10.5084L4.41495 7.68184L19.0459 2.94388L19.0575 2.95546Z" fill="#F5F5F5"/>
</svg>
