<svg width="16" height="23" viewBox="0 0 16 23" fill="none" xmlns="http://www.w3.org/2000/svg">
<path d="M1.1386 4.78211C1.1386 3.50689 1.1386 2.86927 1.38682 2.38196C1.60514 1.95349 1.95349 1.60514 2.38195 1.38682C2.86927 1.13861 3.50688 1.13861 4.78211 1.13861H11.1582C12.4335 1.13861 13.0711 1.13861 13.5584 1.38682C13.9869 1.60514 14.3352 1.95349 14.5535 2.38196C14.8017 2.86927 14.8017 3.50689 14.8017 4.78211V19.9311C14.8017 20.4845 14.8017 20.7611 14.6867 20.9126C14.637 20.9784 14.5736 21.0327 14.5009 21.0716C14.4282 21.1106 14.3478 21.1332 14.2655 21.138C14.0753 21.1494 13.8453 20.9957 13.3853 20.6894L7.97017 17.0789L2.55501 20.6883C2.09502 20.9957 1.86503 21.1494 1.67374 21.138C1.59158 21.1331 1.51147 21.1103 1.43893 21.0714C1.3664 21.0325 1.30317 20.9783 1.2536 20.9126C1.1386 20.7611 1.1386 20.4845 1.1386 19.9311V4.78211Z" stroke="#F5F5F5" stroke-width="2.27719" stroke-linecap="round" stroke-linejoin="round"/>
</svg>
