<svg width="22" height="22" viewBox="0 0 22 22" fill="none" xmlns="http://www.w3.org/2000/svg">
<path d="M2.00399 12.0024H3.00399V19.0024C3.00399 20.1024 3.90399 21.0024 5.00399 21.0024H17.004C18.104 21.0024 19.004 20.1024 19.004 19.0024V12.0024H20.004C20.404 12.0024 20.774 11.7624 20.924 11.3824C21.084 11.0124 20.994 10.5824 20.704 10.2924L11.714 1.29244C11.6215 1.19974 11.5116 1.12619 11.3906 1.07601C11.2696 1.02583 11.14 1 11.009 1C10.878 1 10.7483 1.02583 10.6274 1.07601C10.5064 1.12619 10.3965 1.19974 10.304 1.29244L1.29399 10.2924C1.00399 10.5824 0.923987 11.0124 1.07399 11.3824C1.22399 11.7524 1.59399 12.0024 1.99399 12.0024H2.00399Z" stroke="#F5F5F5" stroke-width="2"/>
</svg>
