<svg width="22" height="22" viewBox="0 0 22 22" fill="none" xmlns="http://www.w3.org/2000/svg">
<path d="M4.235 16.61C5.17 15.895 6.215 15.3314 7.37 14.9193C8.525 14.5072 9.735 14.3007 11 14.3C12.265 14.2993 13.475 14.5057 14.63 14.9193C15.785 15.3329 16.83 15.8965 17.765 16.61C18.4067 15.8583 18.9064 15.0058 19.2643 14.0525C19.6222 13.0992 19.8007 12.0817 19.8 11C19.8 8.56166 18.9431 6.48523 17.2293 4.7707C15.5155 3.05617 13.4391 2.19927 11 2.2C8.56093 2.20073 6.4845 3.058 4.7707 4.7718C3.0569 6.4856 2.2 8.56166 2.2 11C2.2 12.0817 2.37893 13.0992 2.7368 14.0525C3.09467 15.0058 3.59407 15.8583 4.235 16.61ZM8.2643 10.9857C7.52143 10.2443 7.15 9.3324 7.15 8.25C7.15 7.1676 7.52143 6.25533 8.2643 5.5132C9.00717 4.77107 9.91907 4.4 11 4.4C12.0809 4.4 12.9932 4.77143 13.7368 5.5143C14.4804 6.25716 14.8515 7.16906 14.85 8.25C14.8485 9.33093 14.4775 10.2432 13.7368 10.9868C12.9961 11.7304 12.0839 12.1015 11 12.1C9.91613 12.0985 9.00387 11.7275 8.2632 10.9868M11 22C9.47833 22 8.04833 21.7111 6.71 21.1332C5.37167 20.5553 4.2075 19.7718 3.2175 18.7825C2.2275 17.7932 1.44393 16.6291 0.866801 15.29C0.289668 13.9509 0.000734726 12.5209 1.3924e-06 11C-0.000731941 9.47906 0.288201 8.04906 0.866801 6.71C1.4454 5.37093 2.22897 4.20677 3.2175 3.2175C4.20603 2.22823 5.3702 1.44467 6.71 0.8668C8.0498 0.288933 9.4798 0 11 0C12.5202 0 13.9502 0.288933 15.29 0.8668C16.6298 1.44467 17.794 2.22823 18.7825 3.2175C19.771 4.20677 20.555 5.37093 21.1343 6.71C21.7136 8.04906 22.0022 9.47906 22 11C21.9978 12.5209 21.7089 13.9509 21.1332 15.29C20.5575 16.6291 19.774 17.7932 18.7825 18.7825C17.791 19.7718 16.6269 20.5557 15.29 21.1343C13.9531 21.7129 12.5231 22.0015 11 22ZM13.75 19.3743C14.6117 19.0898 15.4 18.6817 16.115 18.15C15.4 17.6183 14.6117 17.2106 13.75 16.9268C12.8883 16.643 11.9717 16.5007 11 16.5C10.0283 16.4993 9.11167 16.6415 8.25 16.9268C7.38833 17.2121 6.6 17.6198 5.885 18.15C6.6 18.6817 7.38833 19.0898 8.25 19.3743C9.11167 19.6588 10.0283 19.8007 11 19.8C11.9717 19.7993 12.8883 19.6574 13.75 19.3743ZM12.1825 9.4325C12.4942 9.12083 12.65 8.72666 12.65 8.25C12.65 7.77333 12.4942 7.37916 12.1825 7.0675C11.8708 6.75583 11.4767 6.6 11 6.6C10.5233 6.6 10.1292 6.75583 9.8175 7.0675C9.50583 7.37916 9.35 7.77333 9.35 8.25C9.35 8.72666 9.50583 9.12083 9.8175 9.4325C10.1292 9.74416 10.5233 9.9 11 9.9C11.4767 9.9 11.8708 9.74416 12.1825 9.4325Z" fill="#F5F5F5"/>
</svg>
